<svg width="50" height="50" viewBox="0 0 50 50" fill="none" xmlns="http://www.w3.org/2000/svg">
<path fill-rule="evenodd" clip-rule="evenodd" d="M36.9996 46.9373C33.4377 48.8898 29.3485 50 25 50C20.6515 50 16.5623 48.8898 13.0004 46.9373C13.0238 45.0103 14.1252 43.0834 16.263 41.5564C18.4202 40.0156 21.5028 39 25 39C28.4972 39 31.5798 40.0156 33.737 41.5564C35.8748 43.0834 36.9762 45.0103 36.9996 46.9373ZM38.8976 45.7843C38.0578 40.8348 32.1559 37 25 37C17.8441 37 11.9422 40.8348 11.1024 45.7843C4.40737 41.2987 0 33.6641 0 25C0 11.1929 11.1929 0 25 0C38.8071 0 50 11.1929 50 25C50 33.6641 45.5926 41.2987 38.8976 45.7843ZM25 31C28.3137 31 31 28.3137 31 25C31 21.6863 28.3137 19 25 19C21.6863 19 19 21.6863 19 25C19 28.3137 21.6863 31 25 31ZM25 33C29.4183 33 33 29.4183 33 25C33 20.5817 29.4183 17 25 17C20.5817 17 17 20.5817 17 25C17 29.4183 20.5817 33 25 33Z" fill="#DEDADA"/>
</svg>
