<svg width="181" height="128" viewBox="0 0 181 128" fill="none" xmlns="http://www.w3.org/2000/svg">
<g clip-path="url(#clip0_249_224)">
<path d="M136.447 17.2316C107.613 -5.02611 67.4972 -5.93558 38.2309 15.7509C22.76 27.2152 10.766 44.7546 12.9483 71.4601C13.7195 80.9063 15.8661 88.6556 18.9978 94.9994C31.6823 120.717 83.7806 119.726 86.674 119.723C88.5485 119.721 90.423 119.763 92.2976 119.848C98.8634 120.15 105.395 120.977 111.829 122.321C121.003 124.236 132.681 125.198 143.116 121.572C144.889 120.958 146.612 120.208 148.269 119.328C154.003 116.276 160.422 113.36 164.175 106.122C166.995 100.689 169.05 93.8776 170.039 85.3935C173.638 54.4958 155.654 32.0576 136.447 17.2316Z" fill="#F2F2F2"/>
<path d="M92.4236 127.969C137.961 127.969 174.877 124.499 174.877 120.218C174.877 115.937 137.961 112.467 92.4236 112.467C46.886 112.467 9.97058 115.937 9.97058 120.218C9.97058 124.499 46.886 127.969 92.4236 127.969Z" fill="#3F3D56"/>
<path opacity="0.1" d="M88.3957 123.856C130.749 123.856 165.083 122.227 165.083 120.218C165.083 118.209 130.749 116.58 88.3957 116.58C46.0423 116.58 11.7081 118.209 11.7081 120.218C11.7081 122.227 46.0423 123.856 88.3957 123.856Z" fill="black"/>
<path d="M130.82 16.4121V25.1078H119.516V119.941H143.108V28.7176V25.1078V16.4121H130.82Z" fill="#575A89"/>
<path d="M68.5621 74.8217V59.8914H54.1445V74.8217H48.7379V120.106H73.8048V74.8217H68.5621Z" fill="#575A89"/>
<path d="M71.0197 99.1042H51.5231V120.269H71.0197V99.1042Z" fill="#3F3D56"/>
<path opacity="0.1" d="M54.636 99.1042H51.5231V120.269H54.636V99.1042Z" fill="black"/>
<path d="M111.16 11.6541V16.7403H82.3244V11.6541H73.8049V120.269H119.516V11.6541H111.16Z" fill="#3F3D56"/>
<path opacity="0.1" d="M117.55 11.6541H111.16V16.7403H117.55V11.6541Z" fill="black"/>
<path opacity="0.1" d="M80.1946 11.6541H73.8049V120.269H80.1946V11.6541Z" fill="black"/>
<path d="M41.2014 42.6636V38.5618H36.9416V42.6636H29.2411V120.269H48.7379V42.6636H41.2014Z" fill="#3F3D56"/>
<path opacity="0.1" d="M39.2353 38.5618H36.9415V42.6636H39.2353V38.5618Z" fill="black"/>
<path opacity="0.1" d="M31.5349 42.6636H29.2412V120.269H31.5349V42.6636Z" fill="black"/>
<path opacity="0.1" d="M117.55 53.4924H111.16V120.27H117.55V53.4924Z" fill="black"/>
<path opacity="0.1" d="M48.7379 42.6636H42.8397V56.9378H48.7379V42.6636Z" fill="black"/>
<path d="M90.0249 25.436H80.85V29.3737H90.0249V25.436Z" fill="#FF6584"/>
<path d="M109.521 65.9618H100.347V69.8995H109.521V65.9618Z" fill="#FF6584"/>
<path d="M90.0249 94.3462H80.85V98.2839H90.0249V94.3462Z" fill="#FF6584"/>
<path d="M43.6589 60.3833H34.484V64.321H43.6589V60.3833Z" fill="#FF6584"/>
<path d="M65.9408 101.401H56.7659V105.339H65.9408V101.401Z" fill="#FF6584"/>
<path opacity="0.1" d="M69.2175 78.2671H53.4891V84.8299H69.2175V78.2671Z" fill="black"/>
<path opacity="0.1" d="M138.029 32.6553H122.301V39.2181H138.029V32.6553Z" fill="black"/>
<path opacity="0.1" d="M138.029 46.6013H122.301V53.1642H138.029V46.6013Z" fill="black"/>
<path opacity="0.1" d="M138.029 60.5474H122.301V67.1102H138.029V60.5474Z" fill="black"/>
<path opacity="0.1" d="M138.029 74.4935H122.301V81.0564H138.029V74.4935Z" fill="black"/>
<path opacity="0.1" d="M138.029 88.4396H122.301V95.0024H138.029V88.4396Z" fill="black"/>
<path opacity="0.1" d="M138.029 102.386H122.301V108.948H138.029V102.386Z" fill="black"/>
<path d="M148.515 62.352V44.4683H137.046V62.352H132.95V120.269H152.447V62.352H148.515Z" fill="#3F3D56"/>
<path opacity="0.1" d="M140.651 44.4685H137.046V62.3523H140.651V44.4685Z" fill="black"/>
<path opacity="0.1" d="M136.555 62.3523H132.95V120.27H136.555V62.3523Z" fill="black"/>
<path opacity="0.1" d="M152.447 91.3928H142.78V97.1353H152.447V91.3928Z" fill="black"/>
<path d="M152.283 82.8611H143.108V86.7988H152.283V82.8611Z" fill="#FF6584"/>
<path d="M181 86.8364C181 101.454 172.323 106.558 161.619 106.558C150.914 106.558 142.237 101.454 142.237 86.8364C142.237 72.2191 161.619 53.6235 161.619 53.6235C161.619 53.6235 181 72.2191 181 86.8364Z" fill="#E0115F"/>
<path d="M160.913 104.322L161.111 92.0882L169.372 76.9538L161.142 90.1691L161.231 84.6685L166.925 73.7189L161.255 83.213L161.416 73.3199L167.512 64.6024L161.441 71.7642L161.541 53.6235L160.911 77.6383L160.963 76.6476L154.764 67.1463L160.863 78.5495L160.286 89.5985L160.268 89.3051L153.123 79.3063L160.247 90.3412L160.174 91.723L160.162 91.7436L160.168 91.857L158.702 119.889H160.66L160.895 105.41L168.002 94.4025L160.913 104.322Z" fill="#3F3D56"/>
<path d="M38.9546 86.9946C38.9546 101.612 30.2773 106.716 19.5732 106.716C8.86913 106.716 0.191772 101.612 0.191772 86.9946C0.191772 72.3773 19.5732 53.7817 19.5732 53.7817C19.5732 53.7817 38.9546 72.3773 38.9546 86.9946Z" fill="#E0115F"/>
<path d="M18.8672 104.48L19.0656 92.2464L27.3266 77.112L19.0969 90.3273L19.186 84.8267L24.8793 73.8771L19.2097 83.371V83.3712L19.3702 73.4781L25.4667 64.7606L19.3954 71.9224L19.4957 53.7817L18.8654 77.7965L18.9172 76.8059L12.7187 67.3045L18.8178 78.7075L18.2404 89.7564L18.2232 89.4633L11.0775 79.4645L18.2015 90.4994L18.1293 91.881L18.1163 91.9018L18.1222 92.0152L16.6569 120.047H18.6147L18.8495 105.568L25.9561 94.5607L18.8672 104.48Z" fill="#3F3D56"/>
</g>
<defs>
<clipPath id="clip0_249_224">
<rect width="181" height="128" fill="white"/>
</clipPath>
</defs>
</svg>
