<svg width="21" height="18" viewBox="0 0 21 18" fill="none" xmlns="http://www.w3.org/2000/svg">
<path d="M8.79661 17.4407L7.04237 15.839C5.24576 14.1949 3.62305 12.5634 2.17424 10.9444C0.724746 9.3261 0 7.54237 0 5.59322C0 4 0.533898 2.66949 1.6017 1.60169C2.66949 0.533898 4 0 5.59322 0C6.49153 0 7.33898 0.190508 8.13559 0.571525C8.9322 0.95322 9.61017 1.47458 10.1695 2.13559C10.7288 1.47458 11.4068 0.95322 12.2034 0.571525C13 0.190508 13.8475 0 14.7458 0C16.339 0 17.6695 0.533898 18.7373 1.60169C19.8051 2.66949 20.339 4 20.339 5.59322C20.339 7.54237 19.6186 9.33051 18.178 10.9576C16.7373 12.5847 15.1017 14.2203 13.2712 15.8644L11.5424 17.4407C11.1525 17.8136 10.6949 18 10.1695 18C9.64407 18 9.18644 17.8136 8.79661 17.4407ZM9.20339 4.16949C8.71186 3.47458 8.18644 2.94475 7.62712 2.58C7.0678 2.21593 6.38983 2.0339 5.59322 2.0339C4.57627 2.0339 3.72881 2.37288 3.05085 3.05085C2.37288 3.72881 2.0339 4.57627 2.0339 5.59322C2.0339 6.47458 2.34746 7.41085 2.97458 8.40203C3.6017 9.3939 4.35186 10.3559 5.22508 11.2881C6.09763 12.2203 6.99593 13.0932 7.92 13.9068C8.84339 14.7203 9.59322 15.3898 10.1695 15.9153C10.7458 15.3898 11.4959 14.7203 12.42 13.9068C13.3434 13.0932 14.2417 12.2203 15.1149 11.2881C15.9875 10.3559 16.7373 9.3939 17.3644 8.40203C17.9915 7.41085 18.3051 6.47458 18.3051 5.59322C18.3051 4.57627 17.9661 3.72881 17.2881 3.05085C16.6102 2.37288 15.7627 2.0339 14.7458 2.0339C13.9492 2.0339 13.2712 2.21593 12.7119 2.58C12.1525 2.94475 11.6271 3.47458 11.1356 4.16949C11.0169 4.33898 10.8729 4.4661 10.7034 4.55085C10.5339 4.63559 10.3559 4.67797 10.1695 4.67797C9.98305 4.67797 9.80509 4.63559 9.63559 4.55085C9.4661 4.4661 9.32203 4.33898 9.20339 4.16949Z" fill="#E0115F"/>
</svg>
