<svg width="21" height="18" viewBox="0 0 21 18" fill="none" xmlns="http://www.w3.org/2000/svg">
<path d="M8.80905 17.4653L7.05233 15.8614C5.25318 14.215 3.62818 12.5812 2.17731 10.9599C0.725771 9.33929 0 7.55304 0 5.60113C0 4.00566 0.534654 2.67327 1.60396 1.60396C2.67327 0.534653 4.00566 0 5.60113 0C6.50071 0 7.34936 0.190778 8.1471 0.572334C8.94484 0.954568 9.62376 1.47666 10.1839 2.13861C10.744 1.47666 11.4229 0.954568 12.2207 0.572334C13.0184 0.190778 13.867 0 14.7666 0C16.3621 0 17.6945 0.534653 18.7638 1.60396C19.8331 2.67327 20.3678 4.00566 20.3678 5.60113C20.3678 7.55304 19.6464 9.3437 18.2037 10.9731C16.761 12.6025 15.1231 14.2405 13.29 15.8868L11.5587 17.4653C11.1683 17.8218 10.71 18 10.1839 18C9.65771 18 9.19943 17.8218 8.80905 17.4653Z" fill="#E0115F"/>
</svg>
