<svg width="13" height="16" viewBox="0 0 13 16" fill="none" xmlns="http://www.w3.org/2000/svg">
<path d="M6.50023 7.89557C6.88258 7.89557 7.21077 7.75856 7.48479 7.48454C7.75881 7.21053 7.89582 6.88234 7.89582 6.49999C7.89582 6.11763 7.75881 5.78945 7.48479 5.51543C7.21077 5.24141 6.88258 5.1044 6.50023 5.1044C6.11788 5.1044 5.78969 5.24141 5.51567 5.51543C5.24165 5.78945 5.10464 6.11763 5.10464 6.49999C5.10464 6.88234 5.24165 7.21053 5.51567 7.48454C5.78969 7.75856 6.11788 7.89557 6.50023 7.89557ZM6.50023 13.9176C8.1316 12.4265 9.33601 11.0723 10.1135 9.85513C10.8909 8.63798 11.2796 7.57057 11.2796 6.65293C11.2796 5.19999 10.8176 4.01469 9.89361 3.09704C8.96959 2.1794 7.83846 1.72057 6.50023 1.72057C5.16199 1.72057 4.03087 2.1794 3.10685 3.09704C2.18283 4.01469 1.72082 5.19999 1.72082 6.65293C1.72082 7.57057 2.1191 8.63479 2.91567 9.84557C3.71224 11.0564 4.90709 12.4137 6.50023 13.9176ZM6.50023 15.9059C4.38454 14.1088 2.80415 12.4424 1.75905 10.9066C0.713955 9.37082 0.191406 7.95293 0.191406 6.65293C0.191406 4.69018 0.825475 3.12253 2.09361 1.94999C3.36175 0.777437 4.83062 0.191162 6.50023 0.191162C8.16984 0.191162 9.63871 0.777437 10.9068 1.94999C12.175 3.12253 12.8091 4.69018 12.8091 6.65293C12.8091 7.95293 12.2865 9.37082 11.2414 10.9066C10.1963 12.4424 8.61592 14.1088 6.50023 15.9059Z" fill="black"/>
</svg>
