<svg width="250" height="214" viewBox="0 0 250 214" fill="none" xmlns="http://www.w3.org/2000/svg">
<g clip-path="url(#clip0_430_209)">
<path d="M128.734 106.502C129.63 110.09 128.432 113.456 126.059 114.021C123.687 114.586 121.038 112.136 120.143 108.547C119.765 107.118 119.748 105.62 120.094 104.178L116.5 88.929L123.97 87.4053L126.72 102.6C127.706 103.725 128.397 105.063 128.734 106.502Z" fill="#FDADB0"/>
<path d="M97.4123 193.7L97.8726 203.695L97.4116 206.46L99.0249 209.687L111.701 211.07L112.392 205.078L105.709 201.62L105.514 195.973L97.4123 193.7Z" fill="#FDADB0"/>
<path d="M110.779 208.765L110.088 209.687L96.813 205.862C96.813 205.862 97.4119 211.761 97.4119 212.914C97.4119 214.066 119.307 214.066 122.602 213.605C125.896 213.144 124.838 210.148 124.838 210.148L111.175 203.68L110.779 208.765Z" fill="#2F2E43"/>
<path d="M64.3871 186.343L61.6245 195.959L60.3027 198.432L60.7986 202.005L72.3655 207.372L74.9383 201.916L69.7124 196.502L72.9906 188.001L64.3871 186.343Z" fill="#FDADB0"/>
<path d="M72.2295 204.893L71.2794 205.545L59.9268 197.673C59.9268 197.673 58.6061 203.454 58.2373 204.546C57.8685 205.637 78.6121 212.644 81.8811 213.262C85.15 213.88 85.1065 210.703 85.1065 210.703L74.2317 200.203L72.2295 204.893Z" fill="#2F2E43"/>
<path d="M98.3058 28.6902L98.7899 36.5508L84.1118 37.2954L88.6571 26.939L98.3058 28.6902Z" fill="#FDADB0"/>
<path d="M99.1643 35.375C95.23 37.1298 88.9373 36.6497 81.806 35.375L80.6914 84.7814C80.6914 84.7814 102.999 89.2664 110.669 80.991L106.632 40.6229L99.1643 35.375Z" fill="#E0E1E2"/>
<path d="M108.247 82.202L76.754 85.3147L61.2124 190.843H73.121L93.5127 118.533L95.1274 200.481H106.027L115.311 100.166L108.247 82.202Z" fill="#2F2E43"/>
<path d="M86.2837 32.3474L75.7024 38.6091C71.6939 40.9812 69.8045 45.7697 71.1133 50.2397L79.2912 78.1712C79.2912 78.1712 65.9742 101.05 70.3015 103.068C80.0256 107.604 94.536 106.499 94.536 106.499L91.2929 51.7241L86.2837 32.3474Z" fill="#3F3D58"/>
<path d="M98.7046 35.1674L110.669 39.8156L113.495 74.3303L121.408 102.135C108.005 107.028 109.256 104.748 109.256 104.748L107.036 56.7702L98.7046 35.1674Z" fill="#3F3D58"/>
<path d="M116.183 101.547L116.142 101.358L103.912 44.7921C103.57 43.2116 104.007 41.6273 105.111 40.4453C106.214 39.2631 107.765 38.7186 109.366 38.9513C111.34 39.2383 112.92 40.6762 113.392 42.6146L126.825 97.8328L116.183 101.547Z" fill="#3F3D58"/>
<path d="M91.9367 30.7785C98.5135 30.7785 103.845 25.4469 103.845 18.8701C103.845 12.2932 98.5135 6.96167 91.9367 6.96167C85.3599 6.96167 80.0283 12.2932 80.0283 18.8701C80.0283 25.4469 85.3599 30.7785 91.9367 30.7785Z" fill="#FDADB0"/>
<path d="M97.6026 3.44188C100.226 4.36378 101.727 4.89132 103.101 6.21583C105.424 8.45314 105.807 11.443 106.163 14.221C106.442 16.3943 106.802 19.2042 105.529 22.4146C105.095 23.5102 102.988 28.3914 98.9558 29.0083C98.1639 29.1294 96.3046 29.1613 96.8405 28.7656C101.8 25.104 103.917 22.8935 103.743 17.2503C103.636 13.7439 98.2776 9.95807 95.0962 9.27751C93.756 8.99086 91.9717 9.25273 90.6923 10.3031C88.0184 12.4982 88.1324 21.5756 85.3129 23.4731C84.1534 24.2535 84.9261 18.7603 84.109 19.6511C82.4969 21.4088 83.531 24.1005 83.8207 25.1256C85.1948 29.9881 87.7855 30.464 89.1276 34.6163C90.5767 39.0992 88.753 43.3199 88.3205 44.3208C87.5682 46.0619 86.2771 49.0499 83.3273 50.4834C79.583 52.303 76.6318 49.9336 74.891 51.9649C73.9179 53.1004 74.4443 54.3031 72.6868 57.8352C72.113 58.9882 71.8262 59.5647 71.5722 59.5443C70.3704 59.4475 68.4246 49.8275 71.5716 40.8685C72.8924 37.1087 74.1863 33.4251 77.6546 30.5446C79.4882 29.0218 81.0261 28.4738 81.4639 26.6954C82.0893 24.1548 79.4925 23.0704 78.9719 19.0617C78.616 16.3202 78.3662 12.3992 79.3342 9.8861C80.2482 7.51284 81.0417 5.45269 83.1187 3.58477C83.6175 3.13612 87.6443 0.0864589 91.9138 0.000433082C93.8795 -0.0391134 95.3236 2.64092 97.6026 3.44188Z" fill="#2F2E43"/>
<path d="M122.765 107.467C138.851 107.467 151.891 94.4271 151.891 78.3412C151.891 62.2553 138.851 49.2151 122.765 49.2151C106.679 49.2151 93.6392 62.2553 93.6392 78.3412C93.6392 94.4271 106.679 107.467 122.765 107.467Z" fill="#E0115F"/>
<path d="M115.395 97.3437C117.163 90.9657 118.932 84.5877 120.7 78.2097C121.076 76.8519 121.367 75.3438 122.229 74.1914C122.895 73.3006 123.943 72.7177 125.052 73.0841C127.695 73.9575 127.653 77.7723 127.606 79.9979C127.535 83.3577 126.776 86.7098 125.38 89.7679C125.189 90.1873 125.261 90.6874 125.687 90.9366C126.054 91.1514 126.663 91.0519 126.855 90.6302C128.253 87.568 129.084 84.2903 129.277 80.9271C129.444 78.0251 129.457 74.1982 126.942 72.2203C125.712 71.2536 124.143 70.9665 122.702 71.6346C121.277 72.2949 120.408 73.662 119.861 75.0775C119.253 76.6514 118.89 78.3393 118.44 79.9633L116.989 85.1965C115.909 89.0942 114.828 92.9918 113.748 96.8895C113.454 97.9506 115.102 98.4034 115.395 97.3437Z" fill="white"/>
<path d="M122.971 88.461C124.065 84.3544 124.624 80.1077 124.629 75.8579C124.63 74.7585 122.922 74.7568 122.92 75.8579C122.916 79.9638 122.381 84.0393 121.324 88.0068C121.04 89.0704 122.688 89.5241 122.971 88.461Z" fill="white"/>
<path d="M105.408 88.4116C106.552 82.8911 107.792 77.3529 109.381 71.941C110.67 67.5526 112.891 62.5797 117.581 60.9886C119.91 60.1984 122.434 60.3257 124.818 60.7842C127.181 61.2389 129.575 61.9156 131.754 62.9506C133.816 63.9304 135.724 65.2808 137.082 67.1411C138.422 68.9775 139.256 71.1088 139.706 73.328C140.75 78.4783 139.521 83.7396 138.145 88.7035C137.961 89.3642 137.774 90.0237 137.587 90.6831C137.286 91.7425 138.933 92.1948 139.234 91.1373C140.755 85.7856 142.336 80.1949 141.627 74.5782C141.32 72.1491 140.639 69.7628 139.425 67.6249C138.18 65.4342 136.385 63.6434 134.233 62.3418C132.062 61.0291 129.619 60.1934 127.172 59.5662C124.573 58.9001 121.868 58.49 119.191 58.8623C116.667 59.2133 114.393 60.41 112.606 62.2169C110.775 64.068 109.536 66.381 108.623 68.7984C107.615 71.4645 106.957 74.2652 106.264 77.0252C105.531 79.9424 104.847 82.872 104.213 85.8123C104.059 86.5267 103.909 87.2418 103.76 87.9575C103.667 88.4088 103.892 88.8805 104.357 89.0082C104.78 89.1246 105.313 88.8655 105.408 88.4116Z" fill="white"/>
<path d="M114.213 70.7514C115.545 66.7088 119.835 64.206 123.989 64.4834C128.593 64.7908 132.583 68.1532 134.2 72.3844C135.16 74.8986 135.442 77.6658 135.038 80.3261C134.969 80.7817 135.153 81.2445 135.635 81.3769C136.039 81.4879 136.616 81.2392 136.686 80.7803C137.493 75.4629 136.01 69.6689 131.825 66.0731C129.863 64.387 127.459 63.22 124.886 62.8705C122.412 62.5345 119.918 62.9924 117.727 64.1969C115.325 65.5182 113.426 67.6839 112.565 70.2972C112.22 71.3438 113.87 71.7924 114.213 70.7514Z" fill="white"/>
<path d="M110.577 78.5865C110.211 82.969 109.106 87.3025 107.319 91.322C107.132 91.7432 107.196 92.2399 107.625 92.4907C107.989 92.7036 108.606 92.608 108.794 92.1843C110.712 87.8701 111.892 83.2924 112.286 78.5865C112.324 78.1262 111.866 77.7323 111.432 77.7323C110.937 77.7323 110.616 78.1249 110.577 78.5865Z" fill="white"/>
<path d="M131.214 83.4785C130.847 87.861 129.742 92.1945 127.955 96.214C127.768 96.6352 127.833 97.1318 128.262 97.3827C128.626 97.5956 129.242 97.4999 129.43 97.0762C131.348 92.7621 132.528 88.1844 132.922 83.4785C132.961 83.0182 132.502 82.6243 132.068 82.6243C131.574 82.6243 131.252 83.0168 131.214 83.4785Z" fill="white"/>
<path d="M114.876 80.0785C115.975 75.7224 117.795 71.5942 120.264 67.8413C120.87 66.9202 119.392 66.0634 118.789 66.9791C116.246 70.8445 114.36 75.1377 113.229 79.6244C112.96 80.6907 114.607 81.1457 114.876 80.0785Z" fill="white"/>
<path d="M0 213.342C0 213.567 0.181103 213.749 0.406625 213.749H249.593C249.819 213.749 250 213.567 250 213.342C250 213.116 249.819 212.935 249.593 212.935H0.406625C0.181103 212.935 0 213.116 0 213.342Z" fill="#3F3D58"/>
<path d="M98.1804 72.4012C101.858 72.0143 105.025 73.6692 105.254 76.0974C105.483 78.5255 102.688 80.8068 99.0087 81.1934C97.5411 81.3687 96.0555 81.1768 94.6763 80.6339L79.0748 82.0692L78.6064 74.4591L94.0364 73.8521C95.2874 73.0323 96.7083 72.5348 98.1804 72.4012Z" fill="#FDADB0"/>
<path d="M79.1724 38.9702C75.3959 38.4383 71.8528 40.9214 71.0679 44.6536C68.3294 57.6743 63.415 85.41 71.1335 85.8732C81.2256 86.4787 90.9139 84.0566 90.9139 84.0566L88.4918 70.1296L80.62 69.3222L85.2504 47.6641C86.1296 43.5518 83.3366 39.5567 79.1724 38.9702Z" fill="#3F3D58"/>
</g>
<defs>
<clipPath id="clip0_430_209">
<rect width="250" height="213.893" fill="white"/>
</clipPath>
</defs>
</svg>
