<svg width="20" height="18" viewBox="0 0 20 18" fill="none" xmlns="http://www.w3.org/2000/svg">
<path d="M1 7C0.716667 7 0.479167 6.90417 0.2875 6.7125C0.0958333 6.52083 0 6.28333 0 6C0 4.08333 0.904167 2.60417 2.7125 1.5625C4.52083 0.520833 6.95 0 10 0C13.05 0 15.4792 0.520833 17.2875 1.5625C19.0958 2.60417 20 4.08333 20 6C20 6.28333 19.9042 6.52083 19.7125 6.7125C19.5208 6.90417 19.2833 7 19 7H1ZM2.15 5H17.85C17.4667 4.03333 16.5792 3.29167 15.1875 2.775C13.7958 2.25833 12.0667 2 10 2C7.93333 2 6.20417 2.25833 4.8125 2.775C3.42083 3.29167 2.53333 4.03333 2.15 5ZM0 10.5C0 10.2667 0.0833333 10.0375 0.25 9.8125C0.416667 9.5875 0.65 9.4 0.95 9.25C1.25 9.1 1.56667 8.9375 1.9 8.7625C2.23333 8.5875 2.71667 8.5 3.35 8.5C4.28333 8.5 4.91667 8.66667 5.25 9C5.58333 9.33333 6.05 9.5 6.65 9.5C7.25 9.5 7.725 9.33333 8.075 9C8.425 8.66667 9.06667 8.5 10 8.5C10.9333 8.5 11.575 8.66667 11.925 9C12.275 9.33333 12.75 9.5 13.35 9.5C13.95 9.5 14.4167 9.33333 14.75 9C15.0833 8.66667 15.7167 8.5 16.65 8.5C17.2667 8.5 17.75 8.58333 18.1 8.75C18.45 8.91667 18.7667 9.075 19.05 9.225C19.3333 9.375 19.5625 9.5625 19.7375 9.7875C19.9125 10.0125 20 10.25 20 10.5C20 10.7833 19.8792 11.0083 19.6375 11.175C19.3958 11.3417 19.15 11.3917 18.9 11.325C18.4 11.1917 18.0375 11.0208 17.8125 10.8125C17.5875 10.6042 17.2333 10.5 16.75 10.5C16.15 10.5 15.6667 10.6667 15.3 11C14.9333 11.3333 14.2833 11.5 13.35 11.5C12.4167 11.5 11.775 11.3333 11.425 11C11.075 10.6667 10.6 10.5 10 10.5C9.4 10.5 8.925 10.6667 8.575 11C8.225 11.3333 7.58333 11.5 6.65 11.5C5.71667 11.5 5.08333 11.3333 4.75 11C4.41667 10.6667 3.95 10.5 3.35 10.5C2.86667 10.5 2.5 10.6042 2.25 10.8125C2 11.0208 1.61667 11.1917 1.1 11.325C0.85 11.3917 0.604167 11.3417 0.3625 11.175C0.120833 11.0083 0 10.7833 0 10.5ZM2 18C1.45 18 0.979167 17.8042 0.5875 17.4125C0.195833 17.0208 0 16.55 0 16V15C0 14.45 0.195833 13.9792 0.5875 13.5875C0.979167 13.1958 1.45 13 2 13H18C18.55 13 19.0208 13.1958 19.4125 13.5875C19.8042 13.9792 20 14.45 20 15V16C20 16.55 19.8042 17.0208 19.4125 17.4125C19.0208 17.8042 18.55 18 18 18H2ZM2 16H18V15H2V16Z" fill="#1C1B1F"/>
</svg>
