<svg width="12" height="18" viewBox="0 0 12 18" fill="none" xmlns="http://www.w3.org/2000/svg">
<path d="M1.089 18L3.59372 6.15576L1.61173 6.94808V9.67043H0V5.93228L4.3778 4.26637C4.5956 4.1851 4.82429 4.13431 5.06387 4.114C5.30345 4.09368 5.5394 4.10384 5.77172 4.14447C6.01857 4.1851 6.24363 4.26298 6.44691 4.3781C6.65019 4.49323 6.80991 4.6456 6.92607 4.83521L7.86261 6.17607C8.29822 6.7991 8.85361 7.29345 9.52879 7.65914C10.204 8.02483 10.9336 8.20767 11.7177 8.20767V9.67043C10.7158 9.65688 9.81556 9.47065 9.01696 9.11174C8.21836 8.75282 7.49961 8.19413 6.86073 7.43567L6.12021 10.1986L8.10219 11.8646V18H6.53403V13.2257L4.3778 11.2957L2.70073 18H1.089ZM7.05675 3.25056C6.57759 3.25056 6.17103 3.09142 5.83707 2.77314C5.5031 2.45485 5.33612 2.07223 5.33612 1.62528C5.33612 1.17833 5.5031 0.795711 5.83707 0.477427C6.17103 0.159142 6.57759 0 7.05675 0C7.53591 0 7.94611 0.159142 8.28733 0.477427C8.62855 0.795711 8.79916 1.17833 8.79916 1.62528C8.79916 2.07223 8.62855 2.45485 8.28733 2.77314C7.94611 3.09142 7.53591 3.25056 7.05675 3.25056Z" fill="black"/>
</svg>
