<svg width="18" height="18" viewBox="0 0 18 18" fill="none" xmlns="http://www.w3.org/2000/svg">
<path fill-rule="evenodd" clip-rule="evenodd" d="M13.122 3.50539C15.7776 6.16096 15.7776 10.4665 13.122 13.122C10.4665 15.7776 6.16095 15.7776 3.50538 13.122C0.849817 10.4665 0.849817 6.16096 3.50538 3.50539C6.16095 0.849829 10.4665 0.849829 13.122 3.50539ZM14.3789 13.5309C17.0882 10.388 16.9521 5.63844 13.9706 2.65687C10.8464 -0.467328 5.78105 -0.467328 2.65685 2.65687C-0.46734 5.78106 -0.46734 10.8464 2.65685 13.9706C5.63843 16.9521 10.3879 17.0883 13.5309 14.3789C13.5359 14.3843 13.5411 14.3896 13.5463 14.3948L16.7865 17.635C17.0208 17.8694 17.4007 17.8694 17.635 17.635C17.8693 17.4007 17.8693 17.0208 17.635 16.7865L14.3948 13.5463C14.3896 13.5411 14.3843 13.5359 14.3789 13.5309Z" fill="#DEDADA"/>
</svg>
