<svg width="19" height="18" viewBox="0 0 19 18" fill="none" xmlns="http://www.w3.org/2000/svg">
<path d="M8.89857 1.48102C9.11196 0.839663 10.0411 0.839661 10.2545 1.48101L11.7904 6.09744C11.8859 6.38426 12.1595 6.57845 12.4684 6.57845L17.4388 6.57845C18.1294 6.57845 18.4165 7.44139 17.8578 7.83777L13.8366 10.6909C13.5868 10.8681 13.4823 11.1824 13.5777 11.4692L15.1136 16.0856C15.327 16.7269 14.5754 17.2603 14.0167 16.8639L9.99551 14.0108C9.74567 13.8335 9.40736 13.8335 9.15752 14.0108L5.13633 16.8639C4.57767 17.2603 3.826 16.7269 4.03939 16.0856L5.57535 11.4692C5.67078 11.1824 5.56624 10.8681 5.3164 10.6909L1.29521 7.83777C0.73655 7.44139 1.02366 6.57845 1.7142 6.57845L6.68467 6.57845C6.99349 6.57845 7.26718 6.38426 7.36261 6.09744L8.89857 1.48102Z" stroke="#FFC000"/>
</svg>
