<svg width="18" height="18" viewBox="0 0 18 18" fill="none" xmlns="http://www.w3.org/2000/svg">
<path d="M0.567384 2.93428L0.567388 2.93428L0.565721 2.93262C0.526156 2.89324 0.5 2.84562 0.5 2.75C0.5 2.65438 0.526156 2.60676 0.565721 2.56738L0.565724 2.56739L0.567384 2.56572C0.606763 2.52616 0.654379 2.5 0.75 2.5H8.75C8.84562 2.5 8.89408 2.52619 8.93445 2.56655C8.97367 2.60577 9 2.65365 9 2.75C9 2.84635 8.97367 2.89423 8.93445 2.93345C8.89408 2.97381 8.84562 3 8.75 3H0.75C0.654379 3 0.606763 2.97384 0.567384 2.93428ZM9 14V14.5H9.5H16.75C16.8457 14.5 16.8944 14.526 16.9345 14.5656C16.974 14.6056 17 14.6544 17 14.75C17 14.8456 16.974 14.8944 16.9345 14.9344C16.8944 14.974 16.8457 15 16.75 15H9.5H9V15.5V16.75C9 16.8457 8.97398 16.8944 8.93441 16.9345C8.89437 16.974 8.84565 17 8.75 17C8.65365 17 8.60577 16.9737 8.56655 16.9344C8.52619 16.8941 8.5 16.8456 8.5 16.75V12.75C8.5 12.6544 8.52619 12.6059 8.56655 12.5656C8.60577 12.5263 8.65365 12.5 8.75 12.5C8.84568 12.5 8.8944 12.526 8.93444 12.5656C8.97399 12.6056 9 12.6543 9 12.75V14ZM4.56739 10.9343L4.56572 10.9326C4.52616 10.8932 4.5 10.8456 4.5 10.75V9.5V9H4H0.75C0.65438 9 0.606763 8.97384 0.567388 8.93428L0.565721 8.93262C0.526156 8.89324 0.5 8.84562 0.5 8.75C0.5 8.65438 0.526192 8.60592 0.566553 8.56555C0.605772 8.52633 0.653652 8.5 0.75 8.5H4H4.5V8V6.75C4.5 6.65438 4.52619 6.60592 4.56655 6.56555C4.60577 6.52634 4.65365 6.5 4.75 6.5C4.84568 6.5 4.8944 6.52601 4.93444 6.56556C4.97399 6.6056 5 6.65432 5 6.75V10.75C5 10.8463 4.97367 10.8942 4.93445 10.9334C4.89408 10.9738 4.84562 11 4.75 11C4.65438 11 4.60676 10.9738 4.56739 10.9343ZM8.56739 8.93428L8.56572 8.93262C8.52616 8.89324 8.5 8.84562 8.5 8.75C8.5 8.65438 8.52619 8.60592 8.56655 8.56555C8.60577 8.52633 8.65365 8.5 8.75 8.5H16.75C16.8457 8.5 16.8944 8.52602 16.9345 8.56559C16.974 8.60563 17 8.65435 17 8.75C17 8.84635 16.9737 8.89423 16.9344 8.93345C16.8941 8.97381 16.8456 9 16.75 9H8.75C8.65438 9 8.60676 8.97384 8.56739 8.93428ZM12.5674 4.93428L12.5657 4.93262C12.5262 4.89324 12.5 4.84562 12.5 4.75V0.75C12.5 0.654382 12.5262 0.605915 12.5666 0.565553C12.6058 0.526335 12.6537 0.5 12.75 0.5C12.8457 0.5 12.8944 0.525999 12.9344 0.565541C12.974 0.605589 13 0.65431 13 0.75V2V2.5H13.5H16.75C16.8456 2.5 16.8941 2.52619 16.9344 2.56655C16.9737 2.60577 17 2.65365 17 2.75C17 2.84635 16.9737 2.89423 16.9344 2.93345C16.8941 2.97381 16.8456 3 16.75 3H13.5H13V3.5V4.75C13 4.84635 12.9737 4.89423 12.9344 4.93345C12.8941 4.97381 12.8456 5 12.75 5C12.6544 5 12.6068 4.97384 12.5674 4.93428ZM0.75 15C0.653652 15 0.605772 14.9737 0.566553 14.9344C0.526192 14.8941 0.5 14.8456 0.5 14.75C0.5 14.6544 0.526192 14.6059 0.566553 14.5656C0.605772 14.5263 0.653652 14.5 0.75 14.5H4.75C4.84569 14.5 4.89441 14.526 4.93446 14.5656C4.974 14.6056 5 14.6543 5 14.75C5 14.8457 4.974 14.8944 4.93446 14.9344C4.89441 14.974 4.84569 15 4.75 15H0.75Z" fill="#DEDADA" stroke="#DEDADA"/>
</svg>
